<svg xmlns="http://www.w3.org/2000/svg" viewBox="0 0 100 100" width="100" height="100">
  <!-- Background Circle -->
  <circle cx="50" cy="50" r="45" fill="#3498db" />
  
  <!-- Brain Icon -->
  <path d="M65,35 C65,30 60,25 55,25 C50,25 47,30 45,32 C43,30 40,25 35,25 C30,25 25,30 25,35 C25,40 30,45 35,45 L35,65 C35,70 40,75 45,75 C50,75 55,70 55,65 L55,45 C60,45 65,40 65,35 Z" fill="white" />
  
  <!-- Quiz Symbol -->
  <text x="50" y="55" font-family="Arial" font-size="20" font-weight="bold" text-anchor="middle" fill="#3498db">Q</text>
</svg>